<mxfile host="app.diagrams.net" agent="Mozilla/5.0 (Windows NT 10.0; Win64; x64) AppleWebKit/537.36 (KHTML, like Gecko) Chrome/131.0.0.0 Safari/537.36" version="25.0.3">
  <diagram name="Page-1" id="ogt_sljapLo9hMkwnEWg">
    <mxGraphModel dx="794" dy="688" grid="1" gridSize="10" guides="1" tooltips="1" connect="1" arrows="1" fold="1" page="1" pageScale="1" pageWidth="827" pageHeight="1169" math="0" shadow="0">
      <root>
        <mxCell id="0" />
        <mxCell id="1" parent="0" />
        <mxCell id="6c3sIC1W4p3ReGTabZ1L-9" value="" style="rounded=0;orthogonalLoop=1;jettySize=auto;html=1;startArrow=block;startFill=1;shape=link;fillColor=#d80073;strokeColor=#A50040;" edge="1" parent="1" source="6c3sIC1W4p3ReGTabZ1L-1" target="6c3sIC1W4p3ReGTabZ1L-2">
          <mxGeometry relative="1" as="geometry" />
        </mxCell>
        <mxCell id="6c3sIC1W4p3ReGTabZ1L-10" value="1. Send Events" style="edgeLabel;html=1;align=center;verticalAlign=middle;resizable=0;points=[];" vertex="1" connectable="0" parent="6c3sIC1W4p3ReGTabZ1L-9">
          <mxGeometry x="-0.04" y="4" relative="1" as="geometry">
            <mxPoint as="offset" />
          </mxGeometry>
        </mxCell>
        <mxCell id="6c3sIC1W4p3ReGTabZ1L-1" value="Windows 10 Client&amp;nbsp;&lt;div&gt;Wazuh Agent&lt;div&gt;&lt;br&gt;&lt;/div&gt;&lt;/div&gt;" style="fontColor=#0066CC;verticalAlign=top;verticalLabelPosition=bottom;labelPosition=center;align=center;html=1;outlineConnect=0;fillColor=#CCCCCC;strokeColor=#6881B3;gradientColor=none;gradientDirection=north;strokeWidth=2;shape=mxgraph.networks.pc;" vertex="1" parent="1">
          <mxGeometry x="345" y="490" width="100" height="70" as="geometry" />
        </mxCell>
        <mxCell id="6c3sIC1W4p3ReGTabZ1L-12" style="edgeStyle=orthogonalEdgeStyle;rounded=0;orthogonalLoop=1;jettySize=auto;html=1;entryX=0.5;entryY=1;entryDx=0;entryDy=0;fillColor=#d80073;strokeColor=#A50040;shape=link;" edge="1" parent="1" source="6c3sIC1W4p3ReGTabZ1L-2" target="6c3sIC1W4p3ReGTabZ1L-3">
          <mxGeometry relative="1" as="geometry" />
        </mxCell>
        <mxCell id="6c3sIC1W4p3ReGTabZ1L-2" value="Router&lt;div&gt;&lt;br&gt;&lt;/div&gt;" style="sketch=0;points=[[0.5,0,0],[1,0.5,0],[0.5,1,0],[0,0.5,0],[0.145,0.145,0],[0.8555,0.145,0],[0.855,0.8555,0],[0.145,0.855,0]];verticalLabelPosition=bottom;html=1;verticalAlign=top;aspect=fixed;align=center;pointerEvents=1;shape=mxgraph.cisco19.rect;prIcon=router;fillColor=#FAFAFA;strokeColor=#005073;" vertex="1" parent="1">
          <mxGeometry x="370" y="290" width="50" height="50" as="geometry" />
        </mxCell>
        <mxCell id="6c3sIC1W4p3ReGTabZ1L-14" style="edgeStyle=orthogonalEdgeStyle;rounded=0;orthogonalLoop=1;jettySize=auto;html=1;shape=link;fillColor=#d80073;strokeColor=#A50040;" edge="1" parent="1" source="6c3sIC1W4p3ReGTabZ1L-3" target="6c3sIC1W4p3ReGTabZ1L-4">
          <mxGeometry relative="1" as="geometry" />
        </mxCell>
        <mxCell id="6c3sIC1W4p3ReGTabZ1L-15" value="2. Receive Events" style="edgeLabel;html=1;align=center;verticalAlign=middle;resizable=0;points=[];" vertex="1" connectable="0" parent="6c3sIC1W4p3ReGTabZ1L-14">
          <mxGeometry x="0.0905" y="-2" relative="1" as="geometry">
            <mxPoint as="offset" />
          </mxGeometry>
        </mxCell>
        <mxCell id="6c3sIC1W4p3ReGTabZ1L-35" style="rounded=0;orthogonalLoop=1;jettySize=auto;html=1;shape=link;strokeColor=#FF99FF;" edge="1" parent="1" source="6c3sIC1W4p3ReGTabZ1L-3" target="6c3sIC1W4p3ReGTabZ1L-6">
          <mxGeometry relative="1" as="geometry">
            <Array as="points">
              <mxPoint x="340" y="110" />
            </Array>
          </mxGeometry>
        </mxCell>
        <mxCell id="6c3sIC1W4p3ReGTabZ1L-3" value="Internet" style="image;aspect=fixed;perimeter=ellipsePerimeter;html=1;align=center;shadow=0;dashed=0;spacingTop=3;image=img/lib/active_directory/internet_cloud.svg;" vertex="1" parent="1">
          <mxGeometry x="371.19" y="170" width="47.62" height="30" as="geometry" />
        </mxCell>
        <mxCell id="6c3sIC1W4p3ReGTabZ1L-17" style="rounded=0;orthogonalLoop=1;jettySize=auto;html=1;shape=link;fillColor=#6d8764;strokeColor=#3A5431;" edge="1" parent="1" source="6c3sIC1W4p3ReGTabZ1L-4" target="6c3sIC1W4p3ReGTabZ1L-6">
          <mxGeometry relative="1" as="geometry" />
        </mxCell>
        <mxCell id="6c3sIC1W4p3ReGTabZ1L-18" value="3. Send Alerts" style="edgeLabel;html=1;align=center;verticalAlign=middle;resizable=0;points=[];" vertex="1" connectable="0" parent="6c3sIC1W4p3ReGTabZ1L-17">
          <mxGeometry x="-0.0586" y="-2" relative="1" as="geometry">
            <mxPoint as="offset" />
          </mxGeometry>
        </mxCell>
        <mxCell id="6c3sIC1W4p3ReGTabZ1L-4" value="Wazuh Manager" style="image;aspect=fixed;perimeter=ellipsePerimeter;html=1;align=center;shadow=0;dashed=0;spacingTop=3;image=img/lib/active_directory/internet_cloud.svg;" vertex="1" parent="1">
          <mxGeometry x="150" y="170" width="47.62" height="30" as="geometry" />
        </mxCell>
        <mxCell id="6c3sIC1W4p3ReGTabZ1L-5" value="TheHive" style="image;aspect=fixed;perimeter=ellipsePerimeter;html=1;align=center;shadow=0;dashed=0;spacingTop=3;image=img/lib/active_directory/internet_cloud.svg;" vertex="1" parent="1">
          <mxGeometry x="640" y="70" width="47.62" height="30" as="geometry" />
        </mxCell>
        <mxCell id="6c3sIC1W4p3ReGTabZ1L-19" style="rounded=0;orthogonalLoop=1;jettySize=auto;html=1;shape=link;fillColor=#008a00;strokeColor=#005700;" edge="1" parent="1" source="6c3sIC1W4p3ReGTabZ1L-6" target="6c3sIC1W4p3ReGTabZ1L-3">
          <mxGeometry relative="1" as="geometry" />
        </mxCell>
        <mxCell id="6c3sIC1W4p3ReGTabZ1L-21" value="4. Enrich IOCS" style="edgeLabel;html=1;align=center;verticalAlign=middle;resizable=0;points=[];" vertex="1" connectable="0" parent="6c3sIC1W4p3ReGTabZ1L-19">
          <mxGeometry x="-0.0502" y="1" relative="1" as="geometry">
            <mxPoint as="offset" />
          </mxGeometry>
        </mxCell>
        <mxCell id="6c3sIC1W4p3ReGTabZ1L-22" style="rounded=0;orthogonalLoop=1;jettySize=auto;html=1;shape=link;fillColor=#1ba1e2;strokeColor=#006EAF;entryX=0;entryY=0.5;entryDx=0;entryDy=0;" edge="1" parent="1" target="6c3sIC1W4p3ReGTabZ1L-5">
          <mxGeometry relative="1" as="geometry">
            <mxPoint x="414.004245333197" y="38.89565628456075" as="sourcePoint" />
            <mxPoint x="622.3799005558832" y="169.99924775508708" as="targetPoint" />
            <Array as="points" />
          </mxGeometry>
        </mxCell>
        <mxCell id="6c3sIC1W4p3ReGTabZ1L-27" value="5. Send Alerts" style="edgeLabel;html=1;align=center;verticalAlign=middle;resizable=0;points=[];" vertex="1" connectable="0" parent="6c3sIC1W4p3ReGTabZ1L-22">
          <mxGeometry x="0.1923" y="-2" relative="1" as="geometry">
            <mxPoint as="offset" />
          </mxGeometry>
        </mxCell>
        <mxCell id="6c3sIC1W4p3ReGTabZ1L-28" style="rounded=0;orthogonalLoop=1;jettySize=auto;html=1;entryX=1;entryY=0.25;entryDx=0;entryDy=0;shape=link;fillColor=#fa6800;strokeColor=#C73500;" edge="1" parent="1" source="6c3sIC1W4p3ReGTabZ1L-6" target="6c3sIC1W4p3ReGTabZ1L-3">
          <mxGeometry relative="1" as="geometry">
            <Array as="points">
              <mxPoint x="500" y="160" />
            </Array>
          </mxGeometry>
        </mxCell>
        <mxCell id="6c3sIC1W4p3ReGTabZ1L-29" value="6. Send Email" style="edgeLabel;html=1;align=center;verticalAlign=middle;resizable=0;points=[];" vertex="1" connectable="0" parent="6c3sIC1W4p3ReGTabZ1L-28">
          <mxGeometry x="-0.0157" y="-3" relative="1" as="geometry">
            <mxPoint x="-1" as="offset" />
          </mxGeometry>
        </mxCell>
        <mxCell id="6c3sIC1W4p3ReGTabZ1L-36" style="rounded=0;orthogonalLoop=1;jettySize=auto;html=1;entryX=0;entryY=0.5;entryDx=0;entryDy=0;shape=link;strokeColor=#FF99FF;" edge="1" parent="1" source="6c3sIC1W4p3ReGTabZ1L-6" target="6c3sIC1W4p3ReGTabZ1L-4">
          <mxGeometry relative="1" as="geometry">
            <Array as="points">
              <mxPoint x="150" y="40" />
            </Array>
          </mxGeometry>
        </mxCell>
        <mxCell id="6c3sIC1W4p3ReGTabZ1L-38" value="8. Send Response Action" style="edgeLabel;html=1;align=center;verticalAlign=middle;resizable=0;points=[];" vertex="1" connectable="0" parent="6c3sIC1W4p3ReGTabZ1L-36">
          <mxGeometry x="0.5428" y="1" relative="1" as="geometry">
            <mxPoint as="offset" />
          </mxGeometry>
        </mxCell>
        <mxCell id="6c3sIC1W4p3ReGTabZ1L-6" value="Shuffle" style="image;aspect=fixed;perimeter=ellipsePerimeter;html=1;align=center;shadow=0;dashed=0;spacingTop=3;image=img/lib/active_directory/internet_cloud.svg;" vertex="1" parent="1">
          <mxGeometry x="372.38" y="20" width="47.62" height="30" as="geometry" />
        </mxCell>
        <mxCell id="6c3sIC1W4p3ReGTabZ1L-30" style="rounded=0;orthogonalLoop=1;jettySize=auto;html=1;entryX=1;entryY=1;entryDx=0;entryDy=0;shape=link;fillColor=#fa6800;strokeColor=#C73500;" edge="1" parent="1" source="6c3sIC1W4p3ReGTabZ1L-7" target="6c3sIC1W4p3ReGTabZ1L-3">
          <mxGeometry relative="1" as="geometry" />
        </mxCell>
        <mxCell id="6c3sIC1W4p3ReGTabZ1L-31" value="7. Send &amp;amp; Receive" style="edgeLabel;html=1;align=center;verticalAlign=middle;resizable=0;points=[];" vertex="1" connectable="0" parent="6c3sIC1W4p3ReGTabZ1L-30">
          <mxGeometry x="-0.0076" y="-1" relative="1" as="geometry">
            <mxPoint as="offset" />
          </mxGeometry>
        </mxCell>
        <mxCell id="6c3sIC1W4p3ReGTabZ1L-33" style="rounded=0;orthogonalLoop=1;jettySize=auto;html=1;entryX=0.75;entryY=1;entryDx=0;entryDy=0;fillColor=#f8cecc;gradientColor=#ea6b66;strokeColor=#FF99FF;shape=link;" edge="1" parent="1" source="6c3sIC1W4p3ReGTabZ1L-7">
          <mxGeometry relative="1" as="geometry">
            <mxPoint x="580" y="326.38" as="sourcePoint" />
            <mxPoint x="404.98583403212797" y="199.9970464074471" as="targetPoint" />
            <Array as="points">
              <mxPoint x="510" y="340" />
              <mxPoint x="470" y="280" />
            </Array>
          </mxGeometry>
        </mxCell>
        <mxCell id="6c3sIC1W4p3ReGTabZ1L-34" value="8. Send Response Action" style="edgeLabel;html=1;align=center;verticalAlign=middle;resizable=0;points=[];" vertex="1" connectable="0" parent="6c3sIC1W4p3ReGTabZ1L-33">
          <mxGeometry x="-0.0358" y="-2" relative="1" as="geometry">
            <mxPoint as="offset" />
          </mxGeometry>
        </mxCell>
        <mxCell id="6c3sIC1W4p3ReGTabZ1L-7" value="&lt;div&gt;&lt;div&gt;Soc Analyst&lt;/div&gt;&lt;/div&gt;" style="fontColor=#0066CC;verticalAlign=top;verticalLabelPosition=bottom;labelPosition=center;align=center;html=1;outlineConnect=0;fillColor=#CCCCCC;strokeColor=#6881B3;gradientColor=none;gradientDirection=north;strokeWidth=2;shape=mxgraph.networks.pc;" vertex="1" parent="1">
          <mxGeometry x="647.62" y="280" width="100" height="70" as="geometry" />
        </mxCell>
        <mxCell id="6c3sIC1W4p3ReGTabZ1L-13" style="edgeStyle=orthogonalEdgeStyle;rounded=0;orthogonalLoop=1;jettySize=auto;html=1;exitX=0.5;exitY=1;exitDx=0;exitDy=0;" edge="1" parent="1" source="6c3sIC1W4p3ReGTabZ1L-4" target="6c3sIC1W4p3ReGTabZ1L-4">
          <mxGeometry relative="1" as="geometry" />
        </mxCell>
        <mxCell id="6c3sIC1W4p3ReGTabZ1L-23" style="edgeStyle=orthogonalEdgeStyle;rounded=0;orthogonalLoop=1;jettySize=auto;html=1;exitX=1;exitY=0.5;exitDx=0;exitDy=0;entryX=1;entryY=0.75;entryDx=0;entryDy=0;" edge="1" parent="1" source="6c3sIC1W4p3ReGTabZ1L-5" target="6c3sIC1W4p3ReGTabZ1L-5">
          <mxGeometry relative="1" as="geometry" />
        </mxCell>
        <mxCell id="6c3sIC1W4p3ReGTabZ1L-41" style="rounded=0;orthogonalLoop=1;jettySize=auto;html=1;entryX=0;entryY=0.5;entryDx=0;entryDy=0;entryPerimeter=0;shape=link;strokeColor=#FF99FF;" edge="1" parent="1" source="6c3sIC1W4p3ReGTabZ1L-4" target="6c3sIC1W4p3ReGTabZ1L-1">
          <mxGeometry relative="1" as="geometry">
            <Array as="points">
              <mxPoint x="170" y="525" />
            </Array>
          </mxGeometry>
        </mxCell>
        <mxCell id="6c3sIC1W4p3ReGTabZ1L-42" value="8. Perform Responsive Action" style="edgeLabel;html=1;align=center;verticalAlign=middle;resizable=0;points=[];" vertex="1" connectable="0" parent="6c3sIC1W4p3ReGTabZ1L-41">
          <mxGeometry x="-0.2762" y="4" relative="1" as="geometry">
            <mxPoint as="offset" />
          </mxGeometry>
        </mxCell>
        <mxCell id="6c3sIC1W4p3ReGTabZ1L-44" style="edgeStyle=orthogonalEdgeStyle;rounded=0;orthogonalLoop=1;jettySize=auto;html=1;" edge="1" parent="1" source="6c3sIC1W4p3ReGTabZ1L-43">
          <mxGeometry relative="1" as="geometry">
            <mxPoint x="140" y="913" as="targetPoint" />
          </mxGeometry>
        </mxCell>
        <mxCell id="6c3sIC1W4p3ReGTabZ1L-43" value="Windows 10&lt;br&gt;Send Events" style="text;html=1;align=center;verticalAlign=middle;resizable=0;points=[];autosize=1;strokeColor=none;fillColor=none;" vertex="1" parent="1">
          <mxGeometry y="893" width="90" height="40" as="geometry" />
        </mxCell>
        <mxCell id="6c3sIC1W4p3ReGTabZ1L-46" style="edgeStyle=orthogonalEdgeStyle;rounded=0;orthogonalLoop=1;jettySize=auto;html=1;" edge="1" parent="1" source="6c3sIC1W4p3ReGTabZ1L-45">
          <mxGeometry relative="1" as="geometry">
            <mxPoint x="380" y="920" as="targetPoint" />
          </mxGeometry>
        </mxCell>
        <mxCell id="6c3sIC1W4p3ReGTabZ1L-45" value="Wazuh Manager&lt;div&gt;Trigger Alerts &amp;amp;Perform response actions&lt;/div&gt;" style="text;html=1;align=center;verticalAlign=middle;resizable=0;points=[];autosize=1;strokeColor=none;fillColor=none;" vertex="1" parent="1">
          <mxGeometry x="105" y="900" width="240" height="40" as="geometry" />
        </mxCell>
        <mxCell id="6c3sIC1W4p3ReGTabZ1L-48" style="rounded=0;orthogonalLoop=1;jettySize=auto;html=1;entryX=0.511;entryY=1.075;entryDx=0;entryDy=0;entryPerimeter=0;" edge="1" parent="1" source="6c3sIC1W4p3ReGTabZ1L-47" target="6c3sIC1W4p3ReGTabZ1L-49">
          <mxGeometry relative="1" as="geometry">
            <mxPoint x="558.5" y="820" as="targetPoint" />
          </mxGeometry>
        </mxCell>
        <mxCell id="6c3sIC1W4p3ReGTabZ1L-50" style="rounded=0;orthogonalLoop=1;jettySize=auto;html=1;entryX=0.54;entryY=0.025;entryDx=0;entryDy=0;entryPerimeter=0;" edge="1" parent="1" target="6c3sIC1W4p3ReGTabZ1L-51">
          <mxGeometry relative="1" as="geometry">
            <mxPoint x="545" y="1010" as="targetPoint" />
            <mxPoint x="489" y="940" as="sourcePoint" />
          </mxGeometry>
        </mxCell>
        <mxCell id="6c3sIC1W4p3ReGTabZ1L-57" value="" style="edgeStyle=orthogonalEdgeStyle;rounded=0;orthogonalLoop=1;jettySize=auto;html=1;" edge="1" parent="1" source="6c3sIC1W4p3ReGTabZ1L-47" target="6c3sIC1W4p3ReGTabZ1L-56">
          <mxGeometry relative="1" as="geometry" />
        </mxCell>
        <mxCell id="6c3sIC1W4p3ReGTabZ1L-47" value="Shuffle&lt;div&gt;Receive Wazuh Alerts &amp;amp; Send responsive actions&lt;/div&gt;" style="text;html=1;align=center;verticalAlign=middle;resizable=0;points=[];autosize=1;strokeColor=none;fillColor=none;" vertex="1" parent="1">
          <mxGeometry x="345" y="900" width="290" height="40" as="geometry" />
        </mxCell>
        <mxCell id="6c3sIC1W4p3ReGTabZ1L-49" value="OSINT&amp;nbsp;&lt;div&gt;Enrich IOCS&lt;/div&gt;" style="text;html=1;align=center;verticalAlign=middle;resizable=0;points=[];autosize=1;strokeColor=none;fillColor=none;" vertex="1" parent="1">
          <mxGeometry x="445" y="790" width="90" height="40" as="geometry" />
        </mxCell>
        <mxCell id="6c3sIC1W4p3ReGTabZ1L-51" value="TheHive&lt;div&gt;Create alert in case management&lt;/div&gt;" style="text;html=1;align=center;verticalAlign=middle;resizable=0;points=[];autosize=1;strokeColor=none;fillColor=none;" vertex="1" parent="1">
          <mxGeometry x="380" y="1000" width="200" height="40" as="geometry" />
        </mxCell>
        <mxCell id="6c3sIC1W4p3ReGTabZ1L-56" value="Email&lt;div&gt;Send email &amp;amp; responsive actions&lt;/div&gt;" style="text;html=1;align=center;verticalAlign=middle;resizable=0;points=[];autosize=1;strokeColor=none;fillColor=none;" vertex="1" parent="1">
          <mxGeometry x="687.62" y="900" width="200" height="40" as="geometry" />
        </mxCell>
      </root>
    </mxGraphModel>
  </diagram>
</mxfile>
